<svg xmlns="http://www.w3.org/2000/svg" xmlns:xlink="http://www.w3.org/1999/xlink" fill="none" height="31" viewBox="0 0 194 31" width="194"><linearGradient id="a" gradientUnits="userSpaceOnUse" x1="66.4381" x2="18.8102" y1="15.7569" y2="15.7569"><stop offset="0" stop-color="#b200ff" stop-opacity=".25"/><stop offset=".505208" stop-color="#3b20dd" stop-opacity=".25"/><stop offset="1" stop-color="#006aff" stop-opacity=".25"/></linearGradient><path clip-rule="evenodd" d="m52.8279 15.7452c0 3.7543 3.0421 6.7964 6.7964 6.7964 3.7533 0 6.7974-3.0421 6.7974-6.7964 0-3.34-2.4106-6.11841-5.5864-6.68981 3.1833.56111 5.6028 3.35881 5.6028 6.70151 0 3.7439-3.0351 6.804-6.7789 6.804h-7.6186c-1.6242-1.8061-2.6125-4.1954-2.6125-6.8157 0-2.6089.9801-4.9891 2.5923-6.79228h7.3367c-3.6304.14039-6.5292 3.12848-6.5292 6.79228z" fill="#b200ff" fill-rule="evenodd" opacity=".3"/><path clip-rule="evenodd" d="m35.8179 15.7452c0 3.7543 3.0422 6.7964 6.7964 6.7964 3.7533 0 6.7975-3.0421 6.7975-6.7964 0-3.341-2.4122-6.12016-5.5895-6.69035 3.1848.55986 5.6058 3.35825 5.6058 6.70205 0 3.7439-3.035 6.804-6.7788 6.804h-7.6187c-1.6241-1.8061-2.6124-4.1954-2.6124-6.8157 0-2.6089.9801-4.9891 2.5922-6.79228h7.3367c-3.6303.14039-6.5292 3.12848-6.5292 6.79228z" fill="#3b20dd" fill-rule="evenodd" opacity=".3"/><rect fill="url(#a)" height="13.608" rx="6.77887" width="47.6278" x="18.8102" y="8.95288"/><g clip-rule="evenodd" fill-rule="evenodd"><path d="m60.7945 9.05538c3.1833.5611 5.6028 3.35872 5.6028 6.70152 0 3.7439-3.035 6.804-6.7789 6.804h-7.6186c1.8665 2.0754 4.5726 3.3805 7.5837 3.3805 5.6304 0 10.1952-4.5648 10.1952-10.1962 0-5.6304-4.5648-10.19515-10.1952-10.19515-3.022 0-5.7368 1.31454-7.6039 3.40287h7.3367c.0886-.00342.1777-.00515.2672-.00515.4133 0 .818.03691 1.211.10761z" fill="#b200ff"/><path d="m43.8255 9.05539c3.1833.56113 5.6028 3.35881 5.6028 6.70151 0 3.7439-3.035 6.804-6.7789 6.804h-7.6186c1.8665 2.0754 4.5726 3.3805 7.5837 3.3805 5.6304 0 10.1952-4.5648 10.1952-10.1962 0-5.6304-4.5648-10.19515-10.1952-10.19515-3.022 0-5.7368 1.31454-7.6039 3.40287h7.3367c.0886-.00342.1777-.00515.2672-.00515.4133 0 .818.03691 1.211.10762z" fill="#3b20dd"/><path d="m25.6044 22.5416c-3.7542 0-6.7964-3.0421-6.7964-6.7964 0-3.7532 3.0422-6.79743 6.7964-6.79743 3.7533 0 6.7975 3.04423 6.7975 6.79743 0 3.7543-3.0442 6.7964-6.7975 6.7964zm0 3.3998c-5.6314 0-10.1961-4.5648-10.1961-10.1962 0-5.6304 4.5647-10.19515 10.1961-10.19515 5.6304 0 10.1952 4.56475 10.1952 10.19515 0 5.6314-4.5648 10.1962-10.1952 10.1962z" fill="#006aff"/><g fill="#160d3d" fill-opacity=".8"><path d="m94.0728 25.1263c5.118 0 7.8522-2.0885 7.8522-5.6777 0-3.3235-2.352-4.2062-7.0878-5.3528l-.2217-.0542c-3.4909-.8436-5.0438-1.2188-5.0438-3.0054 0-1.64717 1.294-2.44166 4.0888-2.44166 3.2361 0 4.6185 1.1476 4.795 3.91226h3.2065c-.06-4.41182-2.6768-6.61874-7.8841-6.61874-4.6476 0-7.3832 1.70635-7.3832 5.26554 0 3.3244 2.3534 4.2944 7.325 5.4711l.1404.0331.2739.0642c2.9994.6992 4.6155 1.0754 4.6155 2.9332 0 1.7936-1.5298 2.6764-4.4119 2.6764-3.5009 0-5.12-1.3533-5.2655-4.147h-3.2361c.0291 4.6766 2.9713 6.9417 8.2368 6.9417zm-85.51298-.2056h-3.14686v-16.1787h-5.41296v-2.64729h13.9728v2.64729h-5.41298zm75.55278 0h-10.3846v-18.82599h3.2362v16.17869h7.1484z"/><path d="m107.181 25.3209c1.021 0 1.85-.8287 1.85-1.8505 0-1.0228-.829-1.8515-1.85-1.8515-1.022 0-1.851.8287-1.851 1.8515 0 1.0218.829 1.8505 1.851 1.8505z"/><path d="m160.406 9.33666c1.026 0 1.859-.83244 1.859-1.85888s-.833-1.85888-1.859-1.85888c-1.027 0-1.859.83244-1.859 1.85888s.832 1.85888 1.859 1.85888zm1.382 1.90174h-2.83v13.6743h2.83zm-38.705 11.7498c-.481.9344-2.003 2.1367-5.235 2.1367-4.513 0-5.848-3.2852-5.848-7.0239 0-3.7396 1.281-7.0239 5.822-7.0239 2.697 0 4.059.9609 4.646 1.8689v-6.88993h2.805v18.88113h-1.549zm-4.407-9.5075c-3.124 0-3.765 1.8689-3.765 4.6203 0 2.7505.641 4.6732 3.739 4.6732 3.178 0 3.846-1.8689 3.846-4.6732 0-2.644-.561-4.6203-3.82-4.6203zm16.174 11.6187c4.3 0 5.903-2.0566 6.143-4.3799h-2.991c-.267 1.0947-.989 2.1895-3.258 2.1895-2.457 0-3.632-1.3616-3.793-3.7123h9.989c.347-4.2998-1.069-8.1451-6.116-8.1451-5.448 0-6.837 3.338-6.837 6.9966 0 3.6595 1.361 7.0512 6.863 7.0512zm-3.872-8.1724c.134-2.0028.908-3.6595 3.579-3.6595 2.59 0 3.472 1.736 3.445 3.6058v.0537zm25.598 4.0329c0 2.4837-2.405 4.1395-6.009 4.1395-4.434 0-6.597-1.6558-6.597-5.0475h2.804c0 1.8425 1.255 2.7769 3.739 2.7769 1.95 0 3.259-.6676 3.259-1.7359 0-1.2551-1.577-1.6021-3.927-2.0565-2.938-.5602-5.608-1.2551-5.608-3.8189 0-2.6704 1.976-4.1659 5.983-4.1659 3.951 0 6.008 1.6822 6.008 4.8872h-2.67c-.107-1.8698-1.149-2.6713-3.419-2.6713-2.244 0-3.072.6148-3.072 1.7096 0 1.1667 1.434 1.4526 3.593 1.8834l.2.0392c3.151.6148 5.716 1.1485 5.716 4.0602zm14.998 9.6952c5.635 0 6.998-2.164 6.998-4.0867 0-2.8844-3.117-3.2997-5.944-3.6758-.156-.021-.311-.0419-.466-.0629l-.426-.0564c-2.534-.3325-3.687-.4846-3.687-1.0921 0-.6411.881-.6675 3.712-.7477 4.861-.1339 5.983-2.0301 5.983-4.5138 0-1.949-.694-2.8042-1.523-3.2578l1.924-.561v-1.3625h-6.01c-1.789 0-6.703-.0001-6.703 4.7806 0 1.5492.507 2.8316 2.057 3.6321-1.523.348-2.324.9354-2.324 2.1904 0 2.1631 1.923 2.4837 6.864 3.0976 2.51.3206 3.578.561 3.578 1.7632 0 .7204-.561 1.6822-3.792 1.6822-3.258 0-3.739-.9618-3.873-2.5374h-2.991c0 2.9646 1.442 4.808 6.623 4.808zm-3.231-14.4485c0-1.5765.587-2.6176 3.231-2.6176 2.672 0 3.205 1.0684 3.205 2.5375 0 1.6557-.613 2.7769-3.205 2.7769-2.67 0-3.231-1.1749-3.231-2.6968zm15.453 8.7061h-2.858v-13.6743h1.549l.641 1.9226c.454-.9345 1.897-2.1094 4.994-2.1094 4.488 0 5.368 2.6167 5.368 6.4893v7.3718h-2.83v-7.6123c0-2.4299-.428-3.8726-3.338-3.8726-2.912 0-3.526 1.4163-3.526 3.8726z"/></g></g></svg>