<?xml version="1.0" encoding="UTF-8" standalone="no"?>
<svg 
   height="24"
   viewBox="0 -960 960 960"
   width="24"
   version="1.1"
   id="svg1"
   sodipodi:docname="person_raised_hand_FILL0_wght400_GRAD0_opsz24.svg"
   inkscape:version="1.3 (0e150ed, 2023-07-21)"
   xmlns:inkscape="http://www.inkscape.org/namespaces/inkscape"
   xmlns:sodipodi="http://sodipodi.sourceforge.net/DTD/sodipodi-0.dtd"
   xmlns="http://www.w3.org/2000/svg"
   xmlns:svg="http://www.w3.org/2000/svg">
  <defs
     id="defs1" />
  <sodipodi:namedview
     id="namedview1"
     pagecolor="#ffffff"
     bordercolor="#000000"
     borderopacity="0.25"
     inkscape:showpageshadow="2"
     inkscape:pageopacity="0.0"
     inkscape:pagecheckerboard="0"
     inkscape:deskcolor="#d1d1d1"
     inkscape:zoom="13.05098"
     inkscape:cx="4.2525541"
     inkscape:cy="17.393329"
     inkscape:window-width="1360"
     inkscape:window-height="869"
     inkscape:window-x="0"
     inkscape:window-y="38"
     inkscape:window-maximized="0"
     inkscape:current-layer="svg1" />
  <path
     d="m 80,-40 v -80 h 800 v 80 z m 80,-120 V -400 C 138,-436 121,-474.16667 109,-514.5 97,-554.83333 91,-596 91,-638 c 0,-40.66667 5.166667,-80.66667 15.5,-120 10.33333,-39.33333 22.5,-78 36.5,-116 5.33333,-14 14,-25.16667 26,-33.5 12,-8.33333 25.33333,-12.5 40,-12.5 20.66667,0 38.33333,7 53,21 14.66667,14 20.66667,30.66667 18,50 l -11,91 c -4,32 -1.16667,62.33333 8.5,91 9.66667,28.66667 24.16667,53.83333 43.5,75.5 19.33333,21.66667 42.66667,39 70,52 27.33333,13 57,19.5 89,19.5 40,0 80.16667,4.16667 120.5,12.5 40.33333,8.33333 75.5,20.16667 105.5,35.5 30,15.33333 53.16667,34.83333 69.5,58.5 16.33333,23.66667 24.5,52.83333 24.5,87.5 v 166 z m 320,-400 c -44,0 -81.66667,-15.66667 -113,-47 -31.33333,-31.33333 -47,-69 -47,-113 0,-44 15.66667,-81.66667 47,-113 31.33333,-31.33333 69,-47 113,-47 44,0 81.66667,15.66667 113,47 31.33333,31.33333 47,69 47,113 0,44 -15.66667,81.66667 -47,113 -31.33333,31.33333 -69,47 -113,47 z m -160,400 h 80 z"
     id="path1"
     style="fill:white;fill-opacity:1"
     sodipodi:nodetypes="cccccccssscsssccssssssssccsssssssssccc" />
</svg>
